<svg xmlns="http://www.w3.org/2000/svg" fill="#000000" viewBox="0 0 32 32" version="1.1">
    <path d="M15.986 32l-4.851-2.273v-1.077l-2.725-1.294v-3.219c-2.37-2.199-3.609-4.927-3.612-8.139 0-3.199 1.246-5.909 3.601-8.152v-3.201c0.889-0.455 1.806-0.837 2.714-1.294v-1.066l4.872-2.285 4.851 2.276v1.057c0.889 0.467 1.819 0.844 2.722 1.303v3.2c2.37 2.245 3.62 4.967 3.612 8.18-0.008 3.197-1.241 5.917-3.606 8.114v3.211c-0.884 0.467-1.817 0.839-2.713 1.311v1.066zM16.029 26.377c0.047 0.001 0.102 0.001 0.158 0.001 0.592 0 1.171-0.054 1.732-0.158l-0.058 0.009c2.571-0.474 4.765-1.828 6.308-3.731l0.015-0.020c1.333-1.637 2.074-3.517 2.264-5.607 0.030-0.284 0.047-0.613 0.047-0.947 0-0.679-0.071-1.342-0.206-1.981l0.011 0.062c-0.206-0.969-0.509-1.825-0.907-2.626l0.029 0.064c-0.791-1.603-1.937-2.902-3.378-3.939-0.955-0.687-2.074-1.222-3.28-1.539l-0.070-0.016c-0.703-0.205-1.511-0.324-2.346-0.324-0.005 0-0.011 0-0.016 0h0.001c-0.37 0.006-0.741-0.015-1.111 0.015-0.513 0.032-0.987 0.095-1.45 0.188l0.067-0.011c-2.431 0.517-4.5 1.813-5.984 3.611l-0.014 0.018c-0.686 0.824-1.252 1.78-1.652 2.819l-0.023 0.069c-0.337 0.836-0.566 1.805-0.64 2.817l-0.002 0.032c-0.019 0.238-0.030 0.515-0.030 0.795 0 0.434 0.027 0.863 0.079 1.283l-0.005-0.050c0.094 0.75 0.25 1.426 0.466 2.075l-0.022-0.076c0.419 1.27 1.035 2.369 1.822 3.322l-0.014-0.017c0.874 1.074 1.936 1.958 3.141 2.611l0.055 0.027c1.554 0.823 3.209 1.265 5.016 1.225zM8.783 27.158l7.203 3.373 7.214-3.379c0-0.875 0-1.726 0-2.576-0.002-0.013-0.008-0.024-0.016-0.033l0 0c-0.013-0.012-0.027-0.023-0.042-0.033l-0.001-0.001c-2.074 1.699-4.47 2.571-7.143 2.574-2.685 0-5.094-0.876-7.214-2.611zM8.811 7.506c0.773-0.648 1.656-1.203 2.61-1.627l0.071-0.028c0.858-0.382 1.855-0.672 2.897-0.82l0.060-0.007c0.463-0.068 0.996-0.107 1.539-0.107 0.556 0 1.102 0.041 1.637 0.12l-0.061-0.007c1.103 0.16 2.098 0.454 3.027 0.868l-0.072-0.029c0.957 0.416 1.824 0.975 2.666 1.652v-2.685l-7.202-3.376-7.215 3.383c0 0.881 0 1.72 0 2.559 0.011 0.040 0.025 0.074 0.043 0.107l-0.001-0.002z"/>
    <path d="M25.44 16.033c0.001 0.056 0.002 0.122 0.002 0.188 0 1.463-0.367 2.841-1.014 4.045l0.022-0.046c-1.078 2.090-2.721 3.578-4.905 4.472-0.687 0.286-1.487 0.503-2.32 0.615l-0.050 0.006c-0.351 0.053-0.756 0.083-1.168 0.083-0.133 0-0.264-0.003-0.396-0.009l0.019 0.001c-2.052-0.108-3.904-0.764-5.533-2.032-1.098-0.865-1.985-1.946-2.608-3.183l-0.025-0.054c-0.383-0.756-0.675-1.633-0.831-2.556l-0.008-0.055c-0.138-0.805-0.135-1.623-0.074-2.431 0.089-0.992 0.331-1.905 0.701-2.748l-0.022 0.056c0.564-1.328 1.379-2.451 2.395-3.353l0.009-0.008c0.688-0.618 1.478-1.141 2.339-1.536l0.058-0.024c0.619-0.286 1.342-0.525 2.095-0.68l0.065-0.011c0.228-0.048 0.503-0.085 0.783-0.105l0.021-0.001c0.338-0.037 0.729-0.058 1.125-0.058 0.043 0 0.086 0 0.128 0.001l-0.006-0c1.282 0.041 2.488 0.325 3.587 0.807l-0.062-0.024c1.309 0.574 2.417 1.385 3.315 2.387l0.008 0.009c0.878 0.971 1.553 2.144 1.948 3.438l0.017 0.064c0.244 0.755 0.385 1.623 0.385 2.524 0 0.077-0.001 0.155-0.003 0.231l0-0.011zM15.078 15.46c-0.247-0.641-0.485-1.255-0.726-1.879l-6.073-2.028-0.035 0.057 4.808 4.187c0.667-0.097 1.342-0.183 2.026-0.337zM18.911 15.802l4.818-4.195-0.034-0.058-6.080 2.034c-0.239 0.646-0.464 1.253-0.695 1.881zM8.237 20.394l0.032 0.058 6.090-2.037c0.207-0.617 0.404-1.204 0.611-1.824-0.658-0.136-1.29-0.311-1.931-0.378zM17.282 13.391l-1.296-6.406c-0.444 2.185-0.866 4.286-1.295 6.407l1.294 1.461zM15.956 24.874l0.061-0.011c0.418-2.078 0.836-4.157 1.259-6.267-0.417-0.47-0.846-0.955-1.293-1.458l-1.291 1.459c0.428 2.12 0.846 4.199 1.264 6.278zM17.623 18.416l6.073 2.032c0.011-0.019 0.023-0.038 0.034-0.058l-4.814-4.194c-0.315 0.061-0.632 0.101-0.935 0.187s-0.651 0.065-0.939 0.264z"/>
    <circle cx="16" cy="16" r="1" stroke="#000" stroke-width="0" fill="none"/>
    <style>
        path { fill: #000; }
        circle { fill: #FFF; }
        @media (prefers-color-scheme: dark) {
        path { fill: #FFF; }
        circle { fill: #000; }
        }
    </style>
</svg>